<?xml version="1.0" encoding="UTF-8" standalone="no"?>
<svg
   xmlns:dc="http://purl.org/dc/elements/1.1/"
   xmlns:cc="http://creativecommons.org/ns#"
   xmlns:rdf="http://www.w3.org/1999/02/22-rdf-syntax-ns#"
   xmlns:svg="http://www.w3.org/2000/svg"
   xmlns="http://www.w3.org/2000/svg"
   xmlns:sodipodi="http://sodipodi.sourceforge.net/DTD/sodipodi-0.dtd"
   xmlns:inkscape="http://www.inkscape.org/namespaces/inkscape"
   width="1500"
   height="400"
   version="1.1"
   id="svg3337"
   sodipodi:docname="normal.svg"
   inkscape:version="0.92.4 (5da689c313, 2019-01-14)">
  <metadata
     id="metadata3343">
    <rdf:RDF>
      <cc:Work
         rdf:about="">
        <dc:format>image/svg+xml</dc:format>
        <dc:type
           rdf:resource="http://purl.org/dc/dcmitype/StillImage" />
        <dc:title></dc:title>
      </cc:Work>
    </rdf:RDF>
  </metadata>
  <defs
     id="defs3341" />
  <sodipodi:namedview
     pagecolor="#ffffff"
     bordercolor="#666666"
     borderopacity="1"
     objecttolerance="10"
     gridtolerance="10"
     guidetolerance="10"
     inkscape:pageopacity="0"
     inkscape:pageshadow="2"
     inkscape:window-width="1920"
     inkscape:window-height="1017"
     id="namedview3339"
     showgrid="false"
     inkscape:zoom="0.96"
     inkscape:cx="750"
     inkscape:cy="200"
     inkscape:window-x="-8"
     inkscape:window-y="-8"
     inkscape:window-maximized="1"
     inkscape:current-layer="svg3337" />
  <!-- SVG plot written using Boost.Plot program (Creator Jacob Voytko) -->
  <!-- Use, modification and distribution of Boost.Plot subject to the -->
  <!-- Boost Software License, Version 1.0.-->
  <!-- (See accompanying file LICENSE_1_0.txt -->
  <!-- or copy at http://www.boost.org/LICENSE_1_0.txt) -->
  <clipPath
     id="plot_window">
    <rect
       x="85.199997"
       y="59"
       width="450"
       height="281"
       id="rect3184" />
  </clipPath>
  <g
     id="imageBackground"
     style="fill:#ffffff;stroke:#778899;stroke-width:2">
    <rect
       x="0"
       y="0"
       width="750"
       height="400"
       id="rect3187" />
  </g>
  <g
     id="plotBackground"
     style="fill:#ffffff;stroke:#778899;stroke-width:2">
    <rect
       x="84.199997"
       y="58"
       width="452"
       height="283"
       id="rect3190" />
  </g>
  <g
     id="yMinorGrid"
     style="stroke:#c8dcff;stroke-width:0.5" />
  <g
     id="yMajorGrid"
     style="stroke:#c8dcff;stroke-width:1" />
  <g
     id="xMinorGrid"
     style="stroke:#c8dcff;stroke-width:0.5" />
  <g
     id="xMajorGrid"
     style="stroke:#c8dcff;stroke-width:1" />
  <g
     id="yAxis"
     style="stroke:#000000;stroke-width:1">
    <line
       x1="310.20001"
       y1="58"
       x2="310.20001"
       y2="346"
       id="line3197" />
    <line
       x1="84.199997"
       y1="58"
       x2="84.199997"
       y2="341"
       id="line3199" />
  </g>
  <g
     id="xAxis"
     style="stroke:#000000;stroke-width:1">
    <line
       x1="79.199997"
       y1="341"
       x2="536.20001"
       y2="341"
       id="line3202" />
    <line
       x1="79.199997"
       y1="341"
       x2="536.20001"
       y2="341"
       id="line3204" />
  </g>
  <g
     id="yMinorTicks"
     style="stroke:#000000;stroke-width:1">
    <path
       d="m 82.2,335.9 h 2 m -2,-5.2 h 2 m -2,-5.1 h 2 m -2,-5.2 h 2 m -2,-10.3 h 2 m -2,-5.1 h 2 m -2,-5.2 h 2 m -2,-5.1 h 2 m -2,-10.3 h 2 m -2,-5.1 h 2 m -2,-5.2 h 2 m -2,-5.1 h 2 m -2,-10.3 h 2 m -2,-5.2 h 2 m -2,-5.1 h 2 m -2,-5.2 h 2 m -2,-10.3 h 2 m -2,-5.1 h 2 m -2,-5.1 h 2 m -2,-5.2 h 2 m -2,-10.3 h 2 m -2,-5.1 h 2 m -2,-5.2 h 2 m -2,-5.1 h 2 m -2,-10.3 h 2 m -2,-5.2 h 2 m -2,-5.1 h 2 m -2,-5.1 h 2 m -2,-10.3 h 2 m -2,-5.2 h 2 m -2,-5.1 h 2 m -2,-5.2 h 2 m -2,-10.3 h 2 m -2,-5.1 h 2 m -2,-5.2 h 2 m -2,-5.1 h 2 m -2,-10.3 h 2 m -2,-5.14 h 2 m -2,-5.14 h 2 m -2,-5.15 h 2 m -2,-10.29 h 2 m -2,-5.14 h 2 m -2,-5.15 h 2 m -2,-5.14 h 2 M 82.2,341 h 2"
       id="path3207"
       inkscape:connector-curvature="0"
       style="fill:none" />
  </g>
  <g
     id="xMinorTicks"
     style="stroke:#000000;stroke-width:1">
    <path
       d="m 319.5,341 v 2 m 9.2,-2 v 2 m 9.2,-2 v 2 m 9.3,-2 v 2 m 18.4,-2 v 2 m 9.3,-2 v 2 m 9.2,-2 v 2 m 9.2,-2 v 2 m 18.5,-2 v 2 m 9.2,-2 v 2 m 9.3,-2 v 2 m 9.2,-2 v 2 m 18.5,-2 v 2 m 9.2,-2 v 2 m 9.2,-2 v 2 m 9.3,-2 v 2 m 18.4,-2 v 2 m 9.3,-2 v 2 m 9.2,-2 v 2 m 9.2,-2 v 2 M 301,341 v 2 m -9.2,-2 v 2 m -9.3,-2 v 2 m -9.2,-2 v 2 m -18.5,-2 v 2 m -9.2,-2 v 2 m -9.2,-2 v 2 m -9.3,-2 v 2 m -18.4,-2 v 2 m -9.3,-2 v 2 m -9.2,-2 v 2 m -9.2,-2 v 2 m -18.5,-2 v 2 m -9.3,-2 v 2 m -9.2,-2 v 2 m -9.2,-2 v 2 m -18.5,-2 v 2 m -9.2,-2 v 2 m -9.25,-2 v 2 m -9.24,-2 v 2"
       id="path3210"
       inkscape:connector-curvature="0"
       style="fill:none" />
  </g>
  <g
     id="yMajorTicks"
     style="stroke:#000000;stroke-width:2">
    <path
       d="m 79.2,341 h 5 m -5,-25.7 h 5 m -5,-25.8 h 5 m -5,-25.7 h 5 m -5,-25.7 h 5 m -5,-25.7 h 5 m -5,-25.8 h 5 m -5,-25.7 h 5 m -5,-25.7 h 5 m -5,-25.7 h 5 m -5,-25.77 h 5 M 79.2,58 h 5 m -5,283 h 5"
       id="path3213"
       inkscape:connector-curvature="0"
       style="fill:none" />
  </g>
  <g
     id="xMajorTicks"
     style="stroke:#000000;stroke-width:2">
    <path
       d="m 310.2,341 v 5 m 46.2,-5 v 5 m 46.2,-5 v 5 m 46.1,-5 v 5 m 46.2,-5 v 5 m -184.7,-5 v 5 m -46.1,-5 v 5 m -46.2,-5 v 5 m -46.2,-5 v 5 m -46.2,-5 v 5"
       id="path3216"
       inkscape:connector-curvature="0"
       style="fill:none" />
  </g>
  <g
     id="xTicksValues">
    <text
       x="310.20001"
       y="361.60001"
       font-size="12"
       id="text3219"
       style="font-size:12px;font-family:Verdana;text-anchor:middle">0</text>
    <text
       x="356.39999"
       y="361.60001"
       font-size="12"
       id="text3221"
       style="font-size:12px;font-family:Verdana;text-anchor:middle">1</text>
    <text
       x="402.60001"
       y="361.60001"
       font-size="12"
       id="text3223"
       style="font-size:12px;font-family:Verdana;text-anchor:middle">2</text>
    <text
       x="448.70001"
       y="361.60001"
       font-size="12"
       id="text3225"
       style="font-size:12px;font-family:Verdana;text-anchor:middle">3</text>
    <text
       x="494.89999"
       y="361.60001"
       font-size="12"
       id="text3227"
       style="font-size:12px;font-family:Verdana;text-anchor:middle">4</text>
    <text
       x="310.20001"
       y="361.60001"
       font-size="12"
       id="text3229"
       style="font-size:12px;font-family:Verdana;text-anchor:middle">0</text>
    <text
       x="264.10001"
       y="361.60001"
       font-size="12"
       id="text3231"
       style="font-size:12px;font-family:Verdana;text-anchor:middle">-1</text>
    <text
       x="217.89999"
       y="361.60001"
       font-size="12"
       id="text3233"
       style="font-size:12px;font-family:Verdana;text-anchor:middle">-2</text>
    <text
       x="171.7"
       y="361.60001"
       font-size="12"
       id="text3235"
       style="font-size:12px;font-family:Verdana;text-anchor:middle">-3</text>
    <text
       x="125.5"
       y="361.60001"
       font-size="12"
       id="text3237"
       style="font-size:12px;font-family:Verdana;text-anchor:middle">-4</text>
  </g>
  <g
     id="yTicksValues">
    <text
       x="73.199997"
       y="343.39999"
       font-size="12"
       id="text3240"
       style="font-size:12px;font-family:Verdana;text-anchor:end">0</text>
    <text
       x="73.199997"
       y="317.70001"
       font-size="12"
       id="text3242"
       style="font-size:12px;font-family:Verdana;text-anchor:end">0.1</text>
    <text
       x="73.199997"
       y="291.89999"
       font-size="12"
       id="text3244"
       style="font-size:12px;font-family:Verdana;text-anchor:end">0.2</text>
    <text
       x="73.199997"
       y="266.20001"
       font-size="12"
       id="text3246"
       style="font-size:12px;font-family:Verdana;text-anchor:end">0.3</text>
    <text
       x="73.199997"
       y="240.5"
       font-size="12"
       id="text3248"
       style="font-size:12px;font-family:Verdana;text-anchor:end">0.4</text>
    <text
       x="73.199997"
       y="214.8"
       font-size="12"
       id="text3250"
       style="font-size:12px;font-family:Verdana;text-anchor:end">0.5</text>
    <text
       x="73.199997"
       y="189"
       font-size="12"
       id="text3252"
       style="font-size:12px;font-family:Verdana;text-anchor:end">0.6</text>
    <text
       x="73.199997"
       y="163.3"
       font-size="12"
       id="text3254"
       style="font-size:12px;font-family:Verdana;text-anchor:end">0.7</text>
    <text
       x="73.199997"
       y="137.60001"
       font-size="12"
       id="text3256"
       style="font-size:12px;font-family:Verdana;text-anchor:end">0.8</text>
    <text
       x="73.199997"
       y="111.9"
       font-size="12"
       id="text3258"
       style="font-size:12px;font-family:Verdana;text-anchor:end">0.9</text>
    <text
       x="73.199997"
       y="86.129997"
       font-size="12"
       id="text3260"
       style="font-size:12px;font-family:Verdana;text-anchor:end">1</text>
    <text
       x="73.199997"
       y="60.400002"
       font-size="12"
       id="text3262"
       style="font-size:12px;font-family:Verdana;text-anchor:end">1.1</text>
    <text
       x="73.199997"
       y="343.39999"
       font-size="12"
       id="text3264"
       style="font-size:12px;font-family:Verdana;text-anchor:end">0</text>
  </g>
  <g
     id="yLabel">
    <text
       x="42.900002"
       y="199.5"
       transform="rotate(-90,42.9,199.5)"
       font-size="14"
       id="text3267"
       style="font-size:14px;font-family:Verdana;text-anchor:middle">Probability</text>
  </g>
  <g
     id="xLabel">
    <text
       x="310.20001"
       y="376.70001"
       font-size="14"
       id="text3270"
       style="font-size:14px;font-family:Verdana;text-anchor:middle">Random Variable</text>
  </g>
  <g
     id="plotLines"
     style="stroke-width:2">
    <g
       clip-path="url(#plot_window)"
       id="g3275"
       style="stroke:#00008b;stroke-width:1">
      <path
         d="m 84.2,341 h 2.26 2.26 2.26 2.26 2.26 2.26 2.24 2.3 2.2 2.3 2.3 2.2 2.3 2.2 2.3 2.3 2.2 2.3 2.2 2.3 2.3 2.2 2.3 2.2 2.3 2.3 2.2 l 2.3,-0.1 h 2.2 2.3 2.3 2.2 2.3 l 2.2,-0.1 h 2.3 2.3 l 2.2,-0.1 h 2.3 l 2.2,-0.1 h 2.3 l 2.3,-0.1 2.2,-0.1 2.3,-0.1 2.2,-0.1 2.3,-0.1 2.3,-0.2 2.2,-0.1 2.3,-0.2 2.2,-0.2 2.3,-0.2 2.3,-0.3 2.2,-0.3 2.3,-0.4 2.3,-0.3 2.2,-0.4 2.3,-0.5 2.2,-0.5 2.3,-0.6 2.3,-0.7 2.2,-0.7 2.3,-0.7 2.2,-0.9 2.3,-0.9 2.3,-1 2.2,-1.1 2.3,-1.2 2.2,-1.4 2.3,-1.4 2.3,-1.5 2.2,-1.7 2.3,-1.7 2.2,-1.9 2.3,-2.1 2.3,-2.1 2.2,-2.3 2.3,-2.5 2.2,-2.6 2.3,-2.7 2.3,-2.9 2.2,-3 2.3,-3.2 2.2,-3.3 2.3,-3.5 2.3,-3.7 2.2,-3.7 2.3,-3.9 2.2,-4.1 2.3,-4.1 2.3,-4.3 2.2,-4.4 2.3,-4.5 2.2,-4.6 2.3,-4.7 2.3,-4.8 2.2,-4.9 2.3,-4.9 2.2,-4.9 2.3,-5 2.3,-5 2.2,-5 2.3,-5.1 2.2,-5 2.3,-5 2.3,-4.9 2.2,-4.9 2.3,-4.9 2.2,-4.7 2.3,-4.7 2.3,-4.6 2.2,-4.5 2.3,-4.4 2.2,-4.3 2.3,-4.2 2.3,-4 2.2,-3.9 2.3,-3.8 2.2,-3.6 2.3,-3.5 2.3,-3.4 2.2,-3.1 2.3,-3.1 2.2,-2.9 2.3,-2.7 2.3,-2.6 2.2,-2.4 2.3,-2.3 2.2,-2.2 2.3,-2 2.3,-1.9 2.2,-1.8 2.3,-1.7 2.2,-1.49 2.3,-1.42 2.3,-1.31 2.2,-1.21 2.3,-1.11 2.2,-1.02 2.3,-0.93 2.3,-0.85 2.2,-0.77 2.3,-0.71 2.2,-0.64 2.3,-0.57 2.3,-0.52 2.2,-0.47 2.3,-0.42 2.2,-0.38 2.3,-0.34 2.3,-0.3 2.2,-0.26 2.3,-0.24 2.3,-0.21 2.2,-0.18 2.3,-0.17 2.2,-0.14 2.3,-0.13 2.3,-0.11 2.2,-0.09 2.3,-0.08 2.2,-0.08 2.3,-0.06 2.3,-0.05 2.2,-0.05 2.3,-0.04 2.2,-0.03 2.3,-0.03 2.3,-0.03 2.2,-0.02 2.3,-0.02 2.2,-0.01 2.3,-0.02 2.3,-0.01 2.2,-0.01 2.3,-0.01 h 2.2 l 2.3,-0.01 h 2.3 l 2.2,-0.01 h 2.3 2.2 2.3 l 2.3,-0.01 h 2.2 2.3 2.2 2.3 2.3 2.2 2.3 2.2 2.3 2.3 2.2 2.3 2.2 2.3 2.3 2.2 2.3 2.2"
         id="path3273"
         inkscape:connector-curvature="0"
         style="fill:none" />
    </g>
    <g
       clip-path="url(#plot_window)"
       id="g3279"
       style="stroke:#8b0000;stroke-width:1">
      <path
         d="m 84.2,341 h 2.26 2.26 2.26 2.26 2.26 2.26 2.24 2.3 2.2 2.3 2.3 2.2 2.3 2.2 2.3 2.3 2.2 2.3 2.2 2.3 2.3 2.2 2.3 2.2 2.3 2.3 2.2 2.3 2.2 2.3 2.3 2.2 2.3 2.2 2.3 2.3 2.2 2.3 2.2 2.3 2.3 2.2 2.3 2.2 2.3 2.3 2.2 2.3 2.2 2.3 2.3 2.2 2.3 2.3 2.2 2.3 2.2 2.3 2.3 2.2 2.3 2.2 2.3 l 2.3,-0.1 h 2.2 2.3 l 2.2,-0.1 h 2.3 l 2.3,-0.1 2.2,-0.1 2.3,-0.2 2.2,-0.2 2.3,-0.3 2.3,-0.3 2.2,-0.4 2.3,-0.6 2.2,-0.7 2.3,-0.9 2.3,-1.1 2.2,-1.4 2.3,-1.6 2.2,-1.9 2.3,-2.3 2.3,-2.8 2.2,-3.2 2.3,-3.6 2.2,-4.2 2.3,-4.8 2.3,-5.3 2.2,-5.9 2.3,-6.5 2.2,-7.1 2.3,-7.7 2.3,-8.2 2.2,-8.7 2.3,-9.1 2.2,-9.5 2.3,-9.8 2.3,-9.9 2.2,-10 2.3,-10.1 2.2,-9.9 2.3,-9.7 2.3,-9.5 2.2,-9.1 2.3,-8.7 2.2,-8.2 2.3,-7.7 2.3,-7.1 2.2,-6.5 2.3,-6 2.2,-5.3 2.3,-4.7 2.3,-4.2 2.2,-3.7 2.3,-3.19 2.2,-2.73 2.3,-2.32 2.3,-1.95 2.2,-1.62 2.3,-1.35 2.2,-1.09 2.3,-0.89 2.3,-0.72 2.2,-0.56 2.3,-0.45 2.2,-0.35 2.3,-0.27 2.3,-0.2 2.2,-0.16 2.3,-0.11 2.2,-0.09 2.3,-0.06 2.3,-0.05 2.2,-0.03 2.3,-0.03 2.2,-0.02 2.3,-0.01 2.3,-0.01 h 2.2 l 2.3,-0.01 h 2.2 2.3 2.3 2.2 2.3 2.2 2.3 2.3 2.2 2.3 2.3 2.2 2.3 2.2 2.3 2.3 2.2 2.3 2.2 2.3 2.3 2.2 2.3 2.2 2.3 2.3 2.2 2.3 2.2 2.3 2.3 2.2 2.3 2.2 2.3 2.3 2.2 2.3 2.2 2.3 2.3 2.2 2.3 2.2 2.3 2.3 2.2 2.3 2.2 2.3 2.3 2.2 2.3 2.2 2.3 2.3 2.2 2.3 2.2"
         id="path3277"
         inkscape:connector-curvature="0"
         style="fill:none" />
    </g>
    <g
       clip-path="url(#plot_window)"
       id="g3283"
       style="stroke:#006400;stroke-width:1">
      <path
         d="m 84.2,339.2 2.26,-0.2 2.26,-0.1 2.26,-0.2 2.26,-0.1 2.26,-0.2 2.26,-0.2 2.24,-0.1 2.3,-0.2 2.2,-0.2 2.3,-0.2 2.3,-0.3 2.2,-0.2 2.3,-0.3 2.2,-0.2 2.3,-0.3 2.3,-0.3 2.2,-0.3 2.3,-0.4 2.2,-0.3 2.3,-0.4 2.3,-0.3 2.2,-0.4 2.3,-0.4 2.2,-0.5 2.3,-0.4 2.3,-0.5 2.2,-0.5 2.3,-0.5 2.2,-0.6 2.3,-0.5 2.3,-0.6 2.2,-0.7 2.3,-0.6 2.2,-0.7 2.3,-0.7 2.3,-0.7 2.2,-0.7 2.3,-0.8 2.2,-0.8 2.3,-0.9 2.3,-0.8 2.2,-0.9 2.3,-1 2.2,-0.9 2.3,-1 2.3,-1.1 2.2,-1 2.3,-1.1 2.2,-1.2 2.3,-1.1 2.3,-1.2 2.2,-1.3 2.3,-1.3 2.3,-1.3 2.2,-1.3 2.3,-1.4 2.2,-1.4 2.3,-1.5 2.3,-1.5 2.2,-1.5 2.3,-1.6 2.2,-1.6 2.3,-1.7 2.3,-1.6 2.2,-1.8 2.3,-1.7 2.2,-1.8 2.3,-1.9 2.3,-1.8 2.2,-1.9 2.3,-2 2.2,-1.9 2.3,-2 2.3,-2.1 2.2,-2 2.3,-2.1 2.2,-2.2 2.3,-2.1 2.3,-2.2 2.2,-2.2 2.3,-2.3 2.2,-2.2 2.3,-2.3 2.3,-2.3 2.2,-2.4 2.3,-2.3 2.2,-2.4 2.3,-2.4 2.3,-2.4 2.2,-2.5 2.3,-2.4 2.2,-2.5 2.3,-2.4 2.3,-2.5 2.2,-2.5 2.3,-2.5 2.2,-2.5 2.3,-2.5 2.3,-2.5 2.2,-2.5 2.3,-2.5 2.2,-2.6 2.3,-2.5 2.3,-2.5 2.2,-2.5 2.3,-2.5 2.2,-2.4 2.3,-2.5 2.3,-2.5 2.2,-2.4 2.3,-2.4 2.2,-2.5 2.3,-2.4 2.3,-2.3 2.2,-2.4 2.3,-2.3 2.2,-2.3 2.3,-2.3 2.3,-2.3 2.2,-2.2 2.3,-2.3 2.2,-2.1 2.3,-2.2 2.3,-2.1 2.2,-2.1 2.3,-2.1 2.2,-2 2.3,-2 2.3,-2 2.2,-1.9 2.3,-1.9 2.2,-1.9 2.3,-1.8 2.3,-1.8 2.2,-1.8 2.3,-1.7 2.2,-1.7 2.3,-1.7 2.3,-1.6 2.2,-1.5 2.3,-1.6 2.2,-1.5 2.3,-1.4 2.3,-1.5 2.2,-1.4 2.3,-1.3 2.2,-1.3 2.3,-1.3 2.3,-1.2 2.2,-1.2 2.3,-1.2 2.3,-1.1 2.2,-1.1 2.3,-1.1 2.2,-1 2.3,-1 2.3,-1 2.2,-0.9 2.3,-0.9 2.2,-0.9 2.3,-0.9 2.3,-0.8 2.2,-0.74 2.3,-0.75 2.2,-0.73 2.3,-0.69 2.3,-0.67 2.2,-0.64 2.3,-0.62 2.2,-0.59 2.3,-0.56 2.3,-0.55 2.2,-0.52 2.3,-0.5 2.2,-0.47 2.3,-0.46 2.3,-0.43 2.2,-0.42 2.3,-0.4 2.2,-0.37 2.3,-0.36 2.3,-0.35 2.2,-0.33 2.3,-0.31 2.2,-0.29 2.3,-0.28 2.3,-0.27 2.2,-0.25 2.3,-0.24 2.2,-0.23 2.3,-0.22 2.3,-0.2 2.2,-0.2 2.3,-0.18 2.2,-0.17 2.3,-0.17 2.3,-0.15 2.2,-0.15 2.3,-0.13 2.2,-0.13"
         id="path3281"
         inkscape:connector-curvature="0"
         style="fill:none" />
    </g>
    <g
       clip-path="url(#plot_window)"
       id="g3287"
       style="stroke:#ff8c00;stroke-width:1">
      <path
         d="m 84.2,341 h 2.26 2.26 2.26 2.26 2.26 2.26 2.24 l 2.3,-0.1 h 2.2 2.3 2.3 2.2 2.3 l 2.2,-0.1 h 2.3 2.3 l 2.2,-0.1 h 2.3 l 2.2,-0.1 2.3,-0.1 h 2.3 l 2.2,-0.1 2.3,-0.1 2.2,-0.1 2.3,-0.2 2.3,-0.1 2.2,-0.2 2.3,-0.2 2.2,-0.2 2.3,-0.3 2.3,-0.2 2.2,-0.4 2.3,-0.3 2.2,-0.4 2.3,-0.4 2.3,-0.5 2.2,-0.6 2.3,-0.6 2.2,-0.6 2.3,-0.8 2.3,-0.8 2.2,-0.9 2.3,-0.9 2.2,-1.1 2.3,-1.1 2.3,-1.3 2.2,-1.4 2.3,-1.4 2.2,-1.6 2.3,-1.7 2.3,-1.8 2.2,-2 2.3,-2.1 2.3,-2.2 2.2,-2.4 2.3,-2.5 2.2,-2.6 2.3,-2.8 2.3,-3 2.2,-3.1 2.3,-3.2 2.2,-3.4 2.3,-3.6 2.3,-3.6 2.2,-3.9 2.3,-3.9 2.2,-4.1 2.3,-4.2 2.3,-4.4 2.2,-4.4 2.3,-4.6 2.2,-4.6 2.3,-4.8 2.3,-4.8 2.2,-4.8 2.3,-5 2.2,-4.9 2.3,-5 2.3,-5.1 2.2,-5 2.3,-5 2.2,-5 2.3,-5 2.3,-4.9 2.2,-4.9 2.3,-4.8 2.2,-4.7 2.3,-4.7 2.3,-4.6 2.2,-4.4 2.3,-4.4 2.2,-4.2 2.3,-4.1 2.3,-4 2.2,-3.9 2.3,-3.7 2.2,-3.5 2.3,-3.5 2.3,-3.2 2.2,-3.2 2.3,-2.9 2.2,-2.8 2.3,-2.7 2.3,-2.6 2.2,-2.3 2.3,-2.3 2.2,-2.1 2.3,-2 2.3,-1.8 2.2,-1.7 2.3,-1.63 2.2,-1.48 2.3,-1.37 2.3,-1.27 2.2,-1.16 2.3,-1.07 2.2,-0.98 2.3,-0.9 2.3,-0.82 2.2,-0.74 2.3,-0.68 2.2,-0.61 2.3,-0.55 2.3,-0.5 2.2,-0.45 2.3,-0.4 2.2,-0.36 2.3,-0.32 2.3,-0.28 2.2,-0.26 2.3,-0.22 2.2,-0.2 2.3,-0.18 2.3,-0.15 2.2,-0.14 2.3,-0.11 2.2,-0.11 2.3,-0.09 2.3,-0.08 2.2,-0.06 2.3,-0.06 2.2,-0.05 2.3,-0.05 2.3,-0.04 2.2,-0.03 2.3,-0.03 2.2,-0.02 2.3,-0.02 2.3,-0.02 2.2,-0.01 2.3,-0.01 2.3,-0.01 2.2,-0.01 2.3,-0.01 h 2.2 l 2.3,-0.01 h 2.3 l 2.2,-0.01 h 2.3 2.2 2.3 l 2.3,-0.01 h 2.2 2.3 2.2 2.3 2.3 2.2 2.3 2.2 2.3 2.3 2.2 2.3 2.2 2.3 2.3 2.2 2.3 2.2 2.3 2.3 2.2 2.3 2.2 2.3 2.3 2.2 2.3 2.2 2.3 2.3 2.2 2.3 2.2 2.3 2.3 2.2 2.3 2.2"
         id="path3285"
         inkscape:connector-curvature="0"
         style="fill:none" />
    </g>
    <g
       clip-path="url(#plot_window)"
       id="g3291"
       style="stroke:#7fff00;stroke-width:1">
      <path
         d="m 84.2,341 h 2.26 2.26 2.26 2.26 2.26 2.26 2.24 2.3 2.2 2.3 2.3 2.2 2.3 2.2 2.3 2.3 2.2 2.3 2.2 2.3 2.3 2.2 2.3 2.2 2.3 2.3 2.2 2.3 2.2 2.3 2.3 2.2 2.3 2.2 2.3 2.3 2.2 2.3 2.2 2.3 2.3 2.2 2.3 2.2 2.3 2.3 2.2 l 2.3,-0.1 h 2.2 2.3 2.3 2.2 2.3 2.3 l 2.2,-0.1 h 2.3 2.2 l 2.3,-0.1 h 2.3 l 2.2,-0.1 2.3,-0.1 h 2.2 l 2.3,-0.1 2.3,-0.1 2.2,-0.2 2.3,-0.1 2.2,-0.1 2.3,-0.2 2.3,-0.2 2.2,-0.2 2.3,-0.3 2.2,-0.3 2.3,-0.3 2.3,-0.4 2.2,-0.4 2.3,-0.4 2.2,-0.5 2.3,-0.6 2.3,-0.6 2.2,-0.6 2.3,-0.8 2.2,-0.8 2.3,-0.9 2.3,-1 2.2,-1.1 2.3,-1.1 2.2,-1.3 2.3,-1.4 2.3,-1.4 2.2,-1.6 2.3,-1.8 2.2,-1.8 2.3,-2 2.3,-2.1 2.2,-2.2 2.3,-2.4 2.2,-2.5 2.3,-2.7 2.3,-2.8 2.2,-3 2.3,-3.1 2.2,-3.3 2.3,-3.4 2.3,-3.6 2.2,-3.7 2.3,-3.8 2.2,-4 2.3,-4.1 2.3,-4.3 2.2,-4.3 2.3,-4.5 2.2,-4.6 2.3,-4.6 2.3,-4.8 2.2,-4.8 2.3,-4.9 2.2,-4.9 2.3,-5 2.3,-5 2.2,-5 2.3,-5 2.2,-5 2.3,-5 2.3,-5 2.2,-4.9 2.3,-4.9 2.2,-4.8 2.3,-4.7 2.3,-4.7 2.2,-4.5 2.3,-4.5 2.2,-4.3 2.3,-4.2 2.3,-4.1 2.2,-4 2.3,-3.8 2.2,-3.7 2.3,-3.5 2.3,-3.4 2.2,-3.3 2.3,-3.1 2.2,-2.9 2.3,-2.8 2.3,-2.7 2.2,-2.5 2.3,-2.4 2.2,-2.2 2.3,-2.1 2.3,-1.9 2.2,-1.9 2.3,-1.7 2.3,-1.55 2.2,-1.47 2.3,-1.35 2.2,-1.25 2.3,-1.16 2.3,-1.05 2.2,-0.97 2.3,-0.89 2.2,-0.8 2.3,-0.74 2.3,-0.66 2.2,-0.6 2.3,-0.55 2.2,-0.49 2.3,-0.44 2.3,-0.39 2.2,-0.36 2.3,-0.31 2.2,-0.28 2.3,-0.25 2.3,-0.22 2.2,-0.2 2.3,-0.17 2.2,-0.15 2.3,-0.13 2.3,-0.12 2.2,-0.1 2.3,-0.09 2.2,-0.08 2.3,-0.06 2.3,-0.06 2.2,-0.05 2.3,-0.04 2.2,-0.04 2.3,-0.03 2.3,-0.03 2.2,-0.02 2.3,-0.02 2.2,-0.02 2.3,-0.01 2.3,-0.01 2.2,-0.01 2.3,-0.01 2.2,-0.01 h 2.3 l 2.3,-0.01 h 2.2 l 2.3,-0.01 h 2.2"
         id="path3289"
         inkscape:connector-curvature="0"
         style="fill:none" />
    </g>
  </g>
  <g
     id="plotPoints"
     clip-path="url(#plot_window)" />
  <g
     id="legendBackground"
     style="fill:#ffffff;stroke:#778899;stroke-width:1">
    <rect
       x="550.20001"
       y="58"
       width="173.8"
       height="165"
       id="rect3295" />
    <rect
       x="550.20001"
       y="58"
       width="173.8"
       height="165"
       id="rect3297" />
  </g>
  <g
     id="legendPoints">
    <g
       id="g3302"
       style="fill:#ffffff;stroke:#00008b;stroke-width:1">
      <line
         x1="565.20001"
         y1="88"
         x2="580.20001"
         y2="88"
         id="line3300" />
    </g>
    <g
       id="g3306"
       style="fill:#ffffff;stroke:#8b0000;stroke-width:1">
      <line
         x1="565.20001"
         y1="118"
         x2="580.20001"
         y2="118"
         id="line3304" />
    </g>
    <g
       id="g3310"
       style="fill:#ffffff;stroke:#006400;stroke-width:1">
      <line
         x1="565.20001"
         y1="148"
         x2="580.20001"
         y2="148"
         id="line3308" />
    </g>
    <g
       id="g3314"
       style="fill:#ffffff;stroke:#ff8c00;stroke-width:1">
      <line
         x1="565.20001"
         y1="178"
         x2="580.20001"
         y2="178"
         id="line3312" />
    </g>
    <g
       id="g3318"
       style="fill:#ffffff;stroke:#7fff00;stroke-width:1">
      <line
         x1="565.20001"
         y1="208"
         x2="580.20001"
         y2="208"
         id="line3316" />
    </g>
  </g>
  <g
     id="legendText">
    <text
       x="587.70001"
       y="88"
       font-size="15"
       id="text3321"
       style="font-size:15px;font-family:Verdana">μ = 0, σ = 1</text>
    <text
       x="587.70001"
       y="118"
       font-size="15"
       id="text3323"
       style="font-size:15px;font-family:Verdana">μ = 0, σ = 0.5</text>
    <text
       x="587.70001"
       y="148"
       font-size="15"
       id="text3325"
       style="font-size:15px;font-family:Verdana">μ = 0, σ = 2</text>
    <text
       x="587.70001"
       y="178"
       font-size="15"
       id="text3327"
       style="font-size:15px;font-family:Verdana">μ = -1, σ = 1</text>
    <text
       x="587.70001"
       y="208"
       font-size="15"
       id="text3329"
       style="font-size:15px;font-family:Verdana">μ = 1, σ = 1</text>
  </g>
  <g
     id="title">
    <text
       x="375"
       y="40"
       font-size="20"
       id="text3332"
       style="font-size:20px;font-family:Verdana;text-anchor:middle">Normal Distribution CDF</text>
  </g>
  <g
     id="plotXValues" />
  <g
     id="plotYValues" />
  <g
     id="g3739"
     transform="translate(750)">
    <g
       id="imageBackground-9"
       style="fill:#ffffff;stroke:#778899;stroke-width:2">
      <rect
         id="rect3503"
         height="400"
         width="750"
         y="0"
         x="0" />
    </g>
    <g
       id="plotBackground-5"
       style="fill:#ffffff;stroke:#778899;stroke-width:2">
      <rect
         id="rect3506"
         height="283"
         width="452"
         y="58"
         x="84.199997" />
    </g>
    <g
       id="yMinorGrid-8"
       style="stroke:#c8dcff;stroke-width:0.5" />
    <g
       id="yMajorGrid-3"
       style="stroke:#c8dcff;stroke-width:1" />
    <g
       id="xMinorGrid-8"
       style="stroke:#c8dcff;stroke-width:0.5" />
    <g
       id="xMajorGrid-2"
       style="stroke:#c8dcff;stroke-width:1" />
    <g
       id="yAxis-8"
       style="stroke:#000000;stroke-width:1">
      <line
         id="line3513"
         y2="346"
         x2="310.20001"
         y1="58"
         x1="310.20001" />
      <line
         id="line3515"
         y2="341"
         x2="84.199997"
         y1="58"
         x1="84.199997" />
    </g>
    <g
       id="xAxis-0"
       style="stroke:#000000;stroke-width:1">
      <line
         id="line3518"
         y2="341"
         x2="536.20001"
         y1="341"
         x1="79.199997" />
      <line
         id="line3520"
         y2="341"
         x2="536.20001"
         y1="341"
         x1="79.199997" />
    </g>
    <g
       id="yMinorTicks-5"
       style="stroke:#000000;stroke-width:1">
      <path
         id="path3523"
         d="m 82.2,334.6 h 2 m -2,-6.5 h 2 m -2,-6.4 h 2 m -2,-6.5 h 2 m -2,-12.9 h 2 m -2,-6.4 h 2 m -2,-6.5 h 2 m -2,-6.4 h 2 m -2,-12.9 h 2 m -2,-6.5 h 2 m -2,-6.4 h 2 m -2,-6.5 h 2 m -2,-12.9 h 2 m -2,-6.4 h 2 m -2,-6.5 h 2 m -2,-6.4 h 2 m -2,-12.9 h 2 m -2,-6.5 h 2 m -2,-6.4 h 2 m -2,-6.5 h 2 m -2,-12.9 h 2 m -2,-6.4 h 2 m -2,-6.5 h 2 m -2,-6.4 h 2 m -2,-12.9 h 2 m -2,-6.5 h 2 m -2,-6.4 h 2 m -2,-6.5 h 2 m -2,-12.9 h 2 m -2,-6.4 h 2 m -2,-6.46 h 2 m -2,-6.45 h 2 m -2,-12.89 h 2 m -2,-6.45 h 2 m -2,-6.45 h 2 m -2,277.3 h 2"
         inkscape:connector-curvature="0"
         style="fill:none" />
    </g>
    <g
       id="xMinorTicks-3"
       style="stroke:#000000;stroke-width:1">
      <path
         id="path3526"
         d="m 319.5,341 v 2 m 9.2,-2 v 2 m 9.2,-2 v 2 m 9.3,-2 v 2 m 18.4,-2 v 2 m 9.3,-2 v 2 m 9.2,-2 v 2 m 9.2,-2 v 2 m 18.5,-2 v 2 m 9.2,-2 v 2 m 9.3,-2 v 2 m 9.2,-2 v 2 m 18.5,-2 v 2 m 9.2,-2 v 2 m 9.2,-2 v 2 m 9.3,-2 v 2 m 18.4,-2 v 2 m 9.3,-2 v 2 m 9.2,-2 v 2 m 9.2,-2 v 2 M 301,341 v 2 m -9.2,-2 v 2 m -9.3,-2 v 2 m -9.2,-2 v 2 m -18.5,-2 v 2 m -9.2,-2 v 2 m -9.2,-2 v 2 m -9.3,-2 v 2 m -18.4,-2 v 2 m -9.3,-2 v 2 m -9.2,-2 v 2 m -9.2,-2 v 2 m -18.5,-2 v 2 m -9.3,-2 v 2 m -9.2,-2 v 2 m -9.2,-2 v 2 m -18.5,-2 v 2 m -9.2,-2 v 2 m -9.25,-2 v 2 m -9.24,-2 v 2"
         inkscape:connector-curvature="0"
         style="fill:none" />
    </g>
    <g
       id="yMajorTicks-4"
       style="stroke:#000000;stroke-width:2">
      <path
         id="path3529"
         d="m 79.2,341 h 5 m -5,-32.2 h 5 m -5,-32.3 h 5 m -5,-32.2 h 5 m -5,-32.3 h 5 m -5,-32.2 h 5 m -5,-32.3 h 5 m -5,-32.2 h 5 m -5,-32.25 h 5 M 79.2,341 h 5"
         inkscape:connector-curvature="0"
         style="fill:none" />
    </g>
    <g
       id="xMajorTicks-2"
       style="stroke:#000000;stroke-width:2">
      <path
         id="path3532"
         d="m 310.2,341 v 5 m 46.2,-5 v 5 m 46.2,-5 v 5 m 46.1,-5 v 5 m 46.2,-5 v 5 m -184.7,-5 v 5 m -46.1,-5 v 5 m -46.2,-5 v 5 m -46.2,-5 v 5 m -46.2,-5 v 5"
         inkscape:connector-curvature="0"
         style="fill:none" />
    </g>
    <g
       id="xTicksValues-3">
      <text
         id="text3535"
         font-size="12"
         y="361.60001"
         x="310.20001"
         style="font-size:12px;font-family:Verdana;text-anchor:middle">0</text>
      <text
         id="text3537"
         font-size="12"
         y="361.60001"
         x="356.39999"
         style="font-size:12px;font-family:Verdana;text-anchor:middle">1</text>
      <text
         id="text3539"
         font-size="12"
         y="361.60001"
         x="402.60001"
         style="font-size:12px;font-family:Verdana;text-anchor:middle">2</text>
      <text
         id="text3541"
         font-size="12"
         y="361.60001"
         x="448.70001"
         style="font-size:12px;font-family:Verdana;text-anchor:middle">3</text>
      <text
         id="text3543"
         font-size="12"
         y="361.60001"
         x="494.89999"
         style="font-size:12px;font-family:Verdana;text-anchor:middle">4</text>
      <text
         id="text3545"
         font-size="12"
         y="361.60001"
         x="310.20001"
         style="font-size:12px;font-family:Verdana;text-anchor:middle">0</text>
      <text
         id="text3547"
         font-size="12"
         y="361.60001"
         x="264.10001"
         style="font-size:12px;font-family:Verdana;text-anchor:middle">-1</text>
      <text
         id="text3549"
         font-size="12"
         y="361.60001"
         x="217.89999"
         style="font-size:12px;font-family:Verdana;text-anchor:middle">-2</text>
      <text
         id="text3551"
         font-size="12"
         y="361.60001"
         x="171.7"
         style="font-size:12px;font-family:Verdana;text-anchor:middle">-3</text>
      <text
         id="text3553"
         font-size="12"
         y="361.60001"
         x="125.5"
         style="font-size:12px;font-family:Verdana;text-anchor:middle">-4</text>
    </g>
    <g
       id="yTicksValues-3">
      <text
         id="text3556"
         font-size="12"
         y="343.39999"
         x="73.199997"
         style="font-size:12px;font-family:Verdana;text-anchor:end">0</text>
      <text
         id="text3558"
         font-size="12"
         y="311.20001"
         x="73.199997"
         style="font-size:12px;font-family:Verdana;text-anchor:end">0.1</text>
      <text
         id="text3560"
         font-size="12"
         y="278.89999"
         x="73.199997"
         style="font-size:12px;font-family:Verdana;text-anchor:end">0.2</text>
      <text
         id="text3562"
         font-size="12"
         y="246.7"
         x="73.199997"
         style="font-size:12px;font-family:Verdana;text-anchor:end">0.3</text>
      <text
         id="text3564"
         font-size="12"
         y="214.39999"
         x="73.199997"
         style="font-size:12px;font-family:Verdana;text-anchor:end">0.4</text>
      <text
         id="text3566"
         font-size="12"
         y="182.2"
         x="73.199997"
         style="font-size:12px;font-family:Verdana;text-anchor:end">0.5</text>
      <text
         id="text3568"
         font-size="12"
         y="149.89999"
         x="73.199997"
         style="font-size:12px;font-family:Verdana;text-anchor:end">0.6</text>
      <text
         id="text3570"
         font-size="12"
         y="117.7"
         x="73.199997"
         style="font-size:12px;font-family:Verdana;text-anchor:end">0.7</text>
      <text
         id="text3572"
         font-size="12"
         y="85.449997"
         x="73.199997"
         style="font-size:12px;font-family:Verdana;text-anchor:end">0.8</text>
      <text
         id="text3574"
         font-size="12"
         y="343.39999"
         x="73.199997"
         style="font-size:12px;font-family:Verdana;text-anchor:end">0</text>
    </g>
    <g
       id="yLabel-3">
      <text
         id="text3577"
         font-size="14"
         transform="rotate(-90,42.9,199.5)"
         y="199.5"
         x="42.900002"
         style="font-size:14px;font-family:Verdana;text-anchor:middle">Probability</text>
    </g>
    <g
       id="xLabel-7">
      <text
         id="text3580"
         font-size="14"
         y="376.70001"
         x="310.20001"
         style="font-size:14px;font-family:Verdana;text-anchor:middle">Random Variable</text>
    </g>
    <g
       id="plotLines-2"
       style="stroke-width:2">
      <g
         id="g3585"
         clip-path="url(#plot_window-3)"
         style="stroke:#00008b;stroke-width:1">
        <path
           id="path3583"
           d="m 84.2,341 h 2.26 2.26 2.26 2.26 2.26 2.26 2.24 2.3 2.2 2.3 2.3 2.2 2.3 2.2 2.3 2.3 2.2 2.3 2.2 l 2.3,-0.1 h 2.3 2.2 2.3 2.2 l 2.3,-0.1 h 2.3 2.2 l 2.3,-0.1 h 2.2 l 2.3,-0.1 h 2.3 l 2.2,-0.1 2.3,-0.1 2.2,-0.1 2.3,-0.1 2.3,-0.1 2.2,-0.2 2.3,-0.2 2.2,-0.2 2.3,-0.2 2.3,-0.3 2.2,-0.3 2.3,-0.3 2.2,-0.4 2.3,-0.4 2.3,-0.5 2.2,-0.5 2.3,-0.6 2.2,-0.7 2.3,-0.7 2.3,-0.8 2.2,-0.9 2.3,-1 2.3,-1.1 2.2,-1.2 2.3,-1.2 2.2,-1.4 2.3,-1.5 2.3,-1.7 2.2,-1.7 2.3,-1.9 2.2,-2 2.3,-2.1 2.3,-2.3 2.2,-2.4 2.3,-2.6 2.2,-2.7 2.3,-2.8 2.3,-3 2.2,-3 2.3,-3.3 2.2,-3.3 2.3,-3.4 2.3,-3.5 2.2,-3.6 2.3,-3.7 2.2,-3.7 2.3,-3.8 2.3,-3.8 2.2,-3.8 2.3,-3.9 2.2,-3.7 2.3,-3.8 2.3,-3.6 2.2,-3.6 2.3,-3.5 2.2,-3.4 2.3,-3.1 2.3,-3.1 2.2,-2.8 2.3,-2.6 2.2,-2.4 2.3,-2.2 2.3,-1.9 2.2,-1.6 2.3,-1.4 2.2,-1.1 2.3,-0.7 2.3,-0.5 2.2,-0.1 2.3,0.1 2.2,0.5 2.3,0.7 2.3,1.1 2.2,1.4 2.3,1.6 2.2,1.9 2.3,2.2 2.3,2.4 2.2,2.6 2.3,2.8 2.2,3 2.3,3.2 2.3,3.4 2.2,3.5 2.3,3.5 2.2,3.7 2.3,3.7 2.3,3.8 2.2,3.8 2.3,3.9 2.2,3.8 2.3,3.8 2.3,3.7 2.2,3.7 2.3,3.6 2.2,3.5 2.3,3.4 2.3,3.3 2.2,3.2 2.3,3.1 2.2,3 2.3,2.8 2.3,2.7 2.2,2.6 2.3,2.4 2.2,2.3 2.3,2.1 2.3,2 2.2,1.9 2.3,1.7 2.2,1.7 2.3,1.5 2.3,1.4 2.2,1.2 2.3,1.2 2.2,1.1 2.3,1 2.3,0.9 2.2,0.8 2.3,0.7 2.3,0.7 2.2,0.6 2.3,0.5 2.2,0.5 2.3,0.4 2.3,0.4 2.2,0.3 2.3,0.3 2.2,0.3 2.3,0.2 2.3,0.2 2.2,0.2 2.3,0.1 2.2,0.2 2.3,0.1 2.3,0.1 2.2,0.1 2.3,0.1 h 2.2 l 2.3,0.1 h 2.3 l 2.2,0.1 h 2.3 2.2 l 2.3,0.1 h 2.3 2.2 2.3 2.2 l 2.3,0.1 h 2.3 2.2 2.3 2.2 2.3 2.3 2.2 2.3 2.2 2.3 2.3 2.2 2.3 2.2 2.3 2.3 2.2 2.3 2.2"
           inkscape:connector-curvature="0"
           style="fill:none" />
      </g>
      <g
         id="g3589"
         clip-path="url(#plot_window-3)"
         style="stroke:#8b0000;stroke-width:1">
        <path
           id="path3587"
           d="m 84.2,341 h 2.26 2.26 2.26 2.26 2.26 2.26 2.24 2.3 2.2 2.3 2.3 2.2 2.3 2.2 2.3 2.3 2.2 2.3 2.2 2.3 2.3 2.2 2.3 2.2 2.3 2.3 2.2 2.3 2.2 2.3 2.3 2.2 2.3 2.2 2.3 2.3 2.2 2.3 2.2 2.3 2.3 2.2 2.3 2.2 2.3 2.3 2.2 2.3 2.2 2.3 2.3 2.2 2.3 2.3 2.2 2.3 2.2 l 2.3,-0.1 h 2.3 2.2 l 2.3,-0.1 2.2,-0.1 2.3,-0.1 2.3,-0.1 2.2,-0.2 2.3,-0.3 2.2,-0.4 2.3,-0.5 2.3,-0.7 2.2,-0.8 2.3,-1.2 2.2,-1.4 2.3,-1.8 2.3,-2.3 2.2,-2.8 2.3,-3.4 2.2,-4.1 2.3,-4.9 2.3,-5.8 2.2,-6.7 2.3,-7.8 2.2,-8.8 2.3,-10 2.3,-11 2.2,-12.1 2.3,-13 2.2,-13.9 2.3,-14.6 2.3,-15 2.2,-15.3 2.3,-15.2 2.2,-14.8 2.3,-14.1 2.3,-13.1 2.2,-11.7 2.3,-10.1 2.2,-8.1 2.3,-5.98 2.3,-3.66 2.2,-1.23 2.3,1.22 2.2,3.66 2.3,5.97 2.3,8.12 2.2,10.1 2.3,11.7 2.2,13.1 2.3,14.1 2.3,14.8 2.2,15.2 2.3,15.2 2.2,15.1 2.3,14.5 2.3,13.9 2.2,13.1 2.3,12.1 2.2,11 2.3,9.9 2.3,8.9 2.2,7.8 2.3,6.7 2.2,5.8 2.3,4.9 2.3,4.1 2.2,3.4 2.3,2.8 2.2,2.3 2.3,1.8 2.3,1.4 2.2,1.2 2.3,0.8 2.2,0.7 2.3,0.5 2.3,0.4 2.2,0.3 2.3,0.2 2.2,0.1 2.3,0.1 2.3,0.1 2.2,0.1 h 2.3 2.2 l 2.3,0.1 h 2.3 2.2 2.3 2.2 2.3 2.3 2.2 2.3 2.3 2.2 2.3 2.2 2.3 2.3 2.2 2.3 2.2 2.3 2.3 2.2 2.3 2.2 2.3 2.3 2.2 2.3 2.2 2.3 2.3 2.2 2.3 2.2 2.3 2.3 2.2 2.3 2.2 2.3 2.3 2.2 2.3 2.2 2.3 2.3 2.2 2.3 2.2 2.3 2.3 2.2 2.3 2.2 2.3 2.3 2.2 2.3 2.2"
           inkscape:connector-curvature="0"
           style="fill:none" />
      </g>
      <g
         id="g3593"
         clip-path="url(#plot_window-3)"
         style="stroke:#006400;stroke-width:1">
        <path
           id="path3591"
           d="m 84.2,337.8 2.26,-0.2 2.26,-0.2 2.26,-0.2 2.26,-0.3 2.26,-0.2 2.26,-0.3 2.24,-0.2 2.3,-0.3 2.2,-0.3 2.3,-0.3 2.3,-0.3 2.2,-0.3 2.3,-0.4 2.2,-0.3 2.3,-0.4 2.3,-0.4 2.2,-0.4 2.3,-0.4 2.2,-0.4 2.3,-0.5 2.3,-0.4 2.2,-0.5 2.3,-0.5 2.2,-0.5 2.3,-0.5 2.3,-0.6 2.2,-0.5 2.3,-0.6 2.2,-0.6 2.3,-0.6 2.3,-0.6 2.2,-0.7 2.3,-0.7 2.2,-0.6 2.3,-0.7 2.3,-0.8 2.2,-0.7 2.3,-0.7 2.2,-0.8 2.3,-0.8 2.3,-0.8 2.2,-0.8 2.3,-0.8 2.2,-0.8 2.3,-0.9 2.3,-0.8 2.2,-0.9 2.3,-0.9 2.2,-0.9 2.3,-0.9 2.3,-0.9 2.2,-1 2.3,-0.9 2.3,-0.9 2.2,-1 2.3,-0.9 2.2,-1 2.3,-0.9 2.3,-1 2.2,-0.9 2.3,-1 2.2,-0.9 2.3,-1 2.3,-0.9 2.2,-1 2.3,-0.9 2.2,-0.9 2.3,-0.9 2.3,-0.9 2.2,-0.9 2.3,-0.9 2.2,-0.9 2.3,-0.8 2.3,-0.8 2.2,-0.8 2.3,-0.8 2.2,-0.8 2.3,-0.7 2.3,-0.8 2.2,-0.7 2.3,-0.6 2.2,-0.7 2.3,-0.6 2.3,-0.6 2.2,-0.5 2.3,-0.5 2.2,-0.5 2.3,-0.5 2.3,-0.4 2.2,-0.4 2.3,-0.4 2.2,-0.3 2.3,-0.3 2.3,-0.2 2.2,-0.2 2.3,-0.2 2.2,-0.1 2.3,-0.1 2.3,-0.1 h 2.2 2.3 l 2.2,0.1 2.3,0.1 2.3,0.1 2.2,0.2 2.3,0.2 2.2,0.2 2.3,0.3 2.3,0.3 2.2,0.4 2.3,0.4 2.2,0.4 2.3,0.5 2.3,0.4 2.2,0.6 2.3,0.5 2.2,0.6 2.3,0.6 2.3,0.7 2.2,0.6 2.3,0.7 2.2,0.8 2.3,0.7 2.3,0.8 2.2,0.8 2.3,0.8 2.2,0.8 2.3,0.8 2.3,0.9 2.2,0.9 2.3,0.9 2.2,0.9 2.3,0.9 2.3,0.9 2.2,0.9 2.3,1 2.2,0.9 2.3,1 2.3,0.9 2.2,1 2.3,0.9 2.2,1 2.3,0.9 2.3,1 2.2,0.9 2.3,1 2.2,0.9 2.3,0.9 2.3,1 2.2,0.9 2.3,0.9 2.3,0.9 2.2,0.9 2.3,0.8 2.2,0.9 2.3,0.9 2.3,0.8 2.2,0.8 2.3,0.8 2.2,0.8 2.3,0.8 2.3,0.8 2.2,0.7 2.3,0.7 2.2,0.8 2.3,0.7 2.3,0.6 2.2,0.7 2.3,0.7 2.2,0.6 2.3,0.6 2.3,0.6 2.2,0.6 2.3,0.5 2.2,0.6 2.3,0.5 2.3,0.5 2.2,0.5 2.3,0.5 2.2,0.4 2.3,0.5 2.3,0.4 2.2,0.4 2.3,0.4 2.2,0.4 2.3,0.4 2.3,0.3 2.2,0.4 2.3,0.3 2.2,0.3 2.3,0.3 2.3,0.3 2.2,0.3 2.3,0.2 2.2,0.3 2.3,0.2 2.3,0.3 2.2,0.2 2.3,0.2 2.2,0.2"
           inkscape:connector-curvature="0"
           style="fill:none" />
      </g>
      <g
         id="g3597"
         clip-path="url(#plot_window-3)"
         style="stroke:#ff8c00;stroke-width:1">
        <path
           id="path3595"
           d="m 84.2,340.9 h 2.26 2.26 2.26 2.26 l 2.26,-0.1 h 2.26 2.24 l 2.3,-0.1 h 2.2 l 2.3,-0.1 2.3,-0.1 h 2.2 l 2.3,-0.1 2.2,-0.1 2.3,-0.2 2.3,-0.1 2.2,-0.2 2.3,-0.2 2.2,-0.2 2.3,-0.2 2.3,-0.3 2.2,-0.3 2.3,-0.4 2.2,-0.4 2.3,-0.4 2.3,-0.5 2.2,-0.6 2.3,-0.6 2.2,-0.7 2.3,-0.8 2.3,-0.8 2.2,-0.9 2.3,-1.1 2.2,-1.1 2.3,-1.2 2.3,-1.3 2.2,-1.5 2.3,-1.5 2.2,-1.7 2.3,-1.8 2.3,-1.9 2.2,-2.1 2.3,-2.2 2.2,-2.3 2.3,-2.5 2.3,-2.6 2.2,-2.8 2.3,-2.9 2.2,-3 2.3,-3.1 2.3,-3.3 2.2,-3.3 2.3,-3.5 2.3,-3.5 2.2,-3.7 2.3,-3.7 2.2,-3.7 2.3,-3.8 2.3,-3.9 2.2,-3.8 2.3,-3.8 2.2,-3.7 2.3,-3.8 2.3,-3.6 2.2,-3.5 2.3,-3.5 2.2,-3.2 2.3,-3.2 2.3,-2.9 2.2,-2.8 2.3,-2.5 2.2,-2.3 2.3,-2 2.3,-1.8 2.2,-1.6 2.3,-1.2 2.2,-0.9 2.3,-0.7 2.3,-0.3 h 2.2 l 2.3,0.3 2.2,0.6 2.3,0.9 2.3,1.1 2.2,1.5 2.3,1.8 2.2,2 2.3,2.3 2.3,2.5 2.2,2.7 2.3,2.9 2.2,3.1 2.3,3.3 2.3,3.4 2.2,3.5 2.3,3.6 2.2,3.7 2.3,3.8 2.3,3.8 2.2,3.8 2.3,3.8 2.2,3.8 2.3,3.8 2.3,3.7 2.2,3.6 2.3,3.6 2.2,3.5 2.3,3.4 2.3,3.2 2.2,3.2 2.3,3 2.2,2.9 2.3,2.8 2.3,2.6 2.2,2.5 2.3,2.4 2.2,2.2 2.3,2.1 2.3,1.9 2.2,1.8 2.3,1.7 2.2,1.6 2.3,1.5 2.3,1.3 2.2,1.2 2.3,1.2 2.2,1 2.3,1 2.3,0.8 2.2,0.8 2.3,0.7 2.2,0.6 2.3,0.6 2.3,0.5 2.2,0.5 2.3,0.4 2.2,0.3 2.3,0.3 2.3,0.3 2.2,0.3 2.3,0.2 2.2,0.2 2.3,0.2 2.3,0.1 2.2,0.1 2.3,0.1 2.2,0.1 2.3,0.1 2.3,0.1 2.2,0.1 h 2.3 l 2.3,0.1 h 2.2 2.3 l 2.2,0.1 h 2.3 2.3 2.2 2.3 2.2 l 2.3,0.1 h 2.3 2.2 2.3 2.2 2.3 2.3 2.2 2.3 2.2 2.3 2.3 2.2 2.3 2.2 2.3 2.3 2.2 2.3 2.2 2.3 2.3 2.2 2.3 2.2 2.3 2.3 2.2 2.3 2.2 2.3 2.3 2.2 2.3 2.2 2.3 2.3 2.2 2.3 2.2"
           inkscape:connector-curvature="0"
           style="fill:none" />
      </g>
      <g
         id="g3601"
         clip-path="url(#plot_window-3)"
         style="stroke:#7fff00;stroke-width:1">
        <path
           id="path3599"
           d="m 84.2,341 h 2.26 2.26 2.26 2.26 2.26 2.26 2.24 2.3 2.2 2.3 2.3 2.2 2.3 2.2 2.3 2.3 2.2 2.3 2.2 2.3 2.3 2.2 2.3 2.2 2.3 2.3 2.2 2.3 2.2 2.3 2.3 2.2 2.3 2.2 2.3 2.3 2.2 2.3 2.2 l 2.3,-0.1 h 2.3 2.2 2.3 2.2 2.3 l 2.3,-0.1 h 2.2 2.3 l 2.2,-0.1 h 2.3 l 2.3,-0.1 2.2,-0.1 2.3,-0.1 2.3,-0.1 2.2,-0.1 2.3,-0.1 2.2,-0.1 2.3,-0.2 2.3,-0.2 2.2,-0.2 2.3,-0.3 2.2,-0.3 2.3,-0.3 2.3,-0.3 2.2,-0.4 2.3,-0.5 2.2,-0.5 2.3,-0.6 2.3,-0.6 2.2,-0.7 2.3,-0.8 2.2,-0.8 2.3,-1 2.3,-1 2.2,-1.1 2.3,-1.3 2.2,-1.3 2.3,-1.5 2.3,-1.6 2.2,-1.6 2.3,-1.9 2.2,-1.9 2.3,-2.1 2.3,-2.2 2.2,-2.4 2.3,-2.5 2.2,-2.6 2.3,-2.8 2.3,-2.9 2.2,-3 2.3,-3.2 2.2,-3.2 2.3,-3.4 2.3,-3.5 2.2,-3.6 2.3,-3.6 2.2,-3.7 2.3,-3.8 2.3,-3.8 2.2,-3.8 2.3,-3.8 2.2,-3.8 2.3,-3.8 2.3,-3.7 2.2,-3.6 2.3,-3.5 2.2,-3.4 2.3,-3.3 2.3,-3.1 2.2,-2.9 2.3,-2.7 2.2,-2.5 2.3,-2.3 2.3,-2 2.2,-1.8 2.3,-1.4 2.2,-1.2 2.3,-0.9 2.3,-0.6 2.2,-0.3 h 2.3 l 2.2,0.3 2.3,0.7 2.3,0.9 2.2,1.2 2.3,1.6 2.2,1.8 2.3,2 2.3,2.3 2.2,2.5 2.3,2.8 2.2,2.9 2.3,3.2 2.3,3.2 2.2,3.5 2.3,3.5 2.2,3.6 2.3,3.7 2.3,3.8 2.2,3.8 2.3,3.8 2.2,3.8 2.3,3.8 2.3,3.8 2.2,3.7 2.3,3.6 2.2,3.6 2.3,3.5 2.3,3.3 2.2,3.3 2.3,3.1 2.3,3 2.2,2.9 2.3,2.8 2.2,2.6 2.3,2.5 2.3,2.3 2.2,2.2 2.3,2.1 2.2,1.9 2.3,1.8 2.3,1.7 2.2,1.5 2.3,1.5 2.2,1.3 2.3,1.2 2.3,1.1 2.2,1.1 2.3,0.9 2.2,0.8 2.3,0.8 2.3,0.7 2.2,0.6 2.3,0.6 2.2,0.5 2.3,0.4 2.3,0.4 2.2,0.4 2.3,0.3 2.2,0.3 2.3,0.2 2.3,0.2 2.2,0.2 2.3,0.2 2.2,0.1 2.3,0.2 2.3,0.1 2.2,0.1 h 2.3 l 2.2,0.1 2.3,0.1 h 2.3 l 2.2,0.1 h 2.3 2.2 l 2.3,0.1 h 2.3 2.2 2.3 2.2"
           inkscape:connector-curvature="0"
           style="fill:none" />
      </g>
    </g>
    <g
       clip-path="url(#plot_window-3)"
       id="plotPoints-9" />
    <g
       id="legendBackground-7"
       style="fill:#ffffff;stroke:#778899;stroke-width:1">
      <rect
         id="rect3605"
         height="165"
         width="173.8"
         y="58"
         x="550.20001" />
      <rect
         id="rect3607"
         height="165"
         width="173.8"
         y="58"
         x="550.20001" />
    </g>
    <g
       id="legendPoints-7">
      <g
         id="g3612"
         style="fill:#ffffff;stroke:#00008b;stroke-width:1">
        <line
           id="line3610"
           y2="88"
           x2="580.20001"
           y1="88"
           x1="565.20001" />
      </g>
      <g
         id="g3616"
         style="fill:#ffffff;stroke:#8b0000;stroke-width:1">
        <line
           id="line3614"
           y2="118"
           x2="580.20001"
           y1="118"
           x1="565.20001" />
      </g>
      <g
         id="g3620"
         style="fill:#ffffff;stroke:#006400;stroke-width:1">
        <line
           id="line3618"
           y2="148"
           x2="580.20001"
           y1="148"
           x1="565.20001" />
      </g>
      <g
         id="g3624"
         style="fill:#ffffff;stroke:#ff8c00;stroke-width:1">
        <line
           id="line3622"
           y2="178"
           x2="580.20001"
           y1="178"
           x1="565.20001" />
      </g>
      <g
         id="g3628"
         style="fill:#ffffff;stroke:#7fff00;stroke-width:1">
        <line
           id="line3626"
           y2="208"
           x2="580.20001"
           y1="208"
           x1="565.20001" />
      </g>
    </g>
    <g
       id="legendText-0">
      <text
         id="text3631"
         font-size="15"
         y="88"
         x="587.70001"
         style="font-size:15px;font-family:Verdana">μ = 0, σ = 1</text>
      <text
         id="text3633"
         font-size="15"
         y="118"
         x="587.70001"
         style="font-size:15px;font-family:Verdana">μ = 0, σ = 0.5</text>
      <text
         id="text3635"
         font-size="15"
         y="148"
         x="587.70001"
         style="font-size:15px;font-family:Verdana">μ = 0, σ = 2</text>
      <text
         id="text3637"
         font-size="15"
         y="178"
         x="587.70001"
         style="font-size:15px;font-family:Verdana">μ = -1, σ = 1</text>
      <text
         id="text3639"
         font-size="15"
         y="208"
         x="587.70001"
         style="font-size:15px;font-family:Verdana">μ = 1, σ = 1</text>
    </g>
    <g
       id="title-9">
      <text
         id="text3642"
         font-size="20"
         y="40"
         x="375"
         style="font-size:20px;font-family:Verdana;text-anchor:middle">Normal Distribution PDF</text>
    </g>
    <g
       id="plotXValues-1" />
    <g
       id="plotYValues-3" />
  </g>
</svg>
